v -0.5 0.0  0.5
v  0.5 0.0  0.5
v -0.5 1.0  0.5
v  0.5 1.0  0.5
v -0.5 1.0 -0.5
v  0.5 1.0 -0.5
v -0.5 0.0 -0.5
v  0.5 0.0 -0.5
vt 0.375 0.00
vt 0.625 0.00
vt 0.375 0.25
vt 0.625 0.25
vt 0.375 0.50
vt 0.625 0.50
vt 0.375 0.75
vt 0.625 0.75
vt 0.375 1.00
vt 0.625 1.00
vt 0.875 0.00
vt 0.875 0.25
vt 0.125 0.00
vt 0.125 0.25
vn  0.0 0.0  1.0
vn  0.0 1.0  0.0
vn  0.0 0.0 -1.0
vn  1.0 0.0  0.0
vn -1.0 0.0  0.0

f 1/1/1 2/2/1 4/4/1 3/3/1
f 3/1/2 4/1/2 6/1/2 5/1/2
f 5/5/3 6/6/3 8/8/3 7/7/3
f 2/2/4 8/11/4 6/12/4 4/4/4
f 7/13/5 1/1/5 3/3/5 5/14/5
